mtllib D:\XNALara XPS\data\! Props\! Computers and computing aids\Laptops and old-style portables\Laptop computer (FONV)\laptop.mtl
g Model001_5_Material455_1.0_0.0_0.0
usemtl Model001_Material001
v 0.255578 0.00133174 0.16971
vn 0 -1 0
vt 0.8036 1.0197
v -0.241376 0.00133174 0.167467
vn 0 -1 0
vt 0.804 1.3108
v -0.240099 0.00133174 -0.115509
vn 0 -1 0
vt 0.6306 1.311
v 0.256855 0.00133174 -0.113266
vn 0 -1 0
vt 0.6302 1.02
v 0.255578 0.0292829 0.16971
vn -0.00451398 0 0.99999
vt 0.9788 1.681
v -0.241376 0.0292829 0.167467
vn -0.00451398 0 0.99999
vt 0.9794 1.9721
v -0.241376 0.00133174 0.167467
vn -0.00451398 0 0.99999
vt 0.9629 1.9721
v -0.241376 0.00133174 0.167467
vn -0.00451398 0 0.99999
vt 0.9629 1.9721
v 0.255578 0.00133174 0.16971
vn -0.00451398 0 0.99999
vt 0.9623 1.681
v 0.255578 0.0292829 0.16971
vn -0.00451398 0 0.99999
vt 0.9788 1.681
v 0.256569 0.0805164 -0.11652
vn -0.000625023 0.984304 0.17648
vt 0.5451 1.3508
v -0.240394 0.0805164 -0.117329
vn -0.000288123 0.984201 0.177053
vt 0.5439 1.6419
v -0.241376 0.0292829 0.167467
vn -0.000459039 0.984253 0.176762
vt 0.3666 1.6415
v 0.255578 0.0292829 0.16971
vn -0.000795331 0.984356 0.176191
vt 0.3669 1.3504
v 0.256855 0.00133174 -0.113266
vn 0.00451284 -0.0229546 -0.999726
vt 0.2369 1.6494
v -0.240099 0.00133174 -0.115509
vn 0.00451284 -0.0229546 -0.999726
vt 0.2376 1.3584
v -0.240394 0.0805164 -0.117329
vn 0.00451284 -0.0229546 -0.999726
vt 0.285 1.3583
v -0.240394 0.0805164 -0.117329
vn 0.00162595 -0.0410539 -0.999156
vt 0.285 1.3583
v 0.256569 0.0805164 -0.11652
vn 0.00162596 -0.0410539 -0.999156
vt 0.2845 1.6494
v 0.256855 0.00133174 -0.113266
vn 0.00162595 -0.0410539 -0.999156
vt 0.2369 1.6494
v -0.240099 0.00133174 -0.115509
vn -0.999985 -0.00358001 -0.0041602
vt 0.7118 1.847
v -0.241376 0.00133174 0.167467
vn -0.99999 0 -0.00451384
vt 0.7123 1.6813
v -0.241376 0.0292829 0.167467
vn -0.99999 -0.00060319 -0.00445426
vt 0.7294 1.6813
v -0.240394 0.0805164 -0.117329
vn -0.999984 -0.00381573 -0.00413692
vt 0.7603 1.8482
v 0.255578 0.00133174 0.16971
vn 0.999993 0.000653328 0.00364268
vt 0.5868 1.8491
v 0.256855 0.00133174 -0.113266
vn 0.999983 0.00380236 0.00451381
vt 0.5863 1.6833
v 0.256569 0.0805164 -0.11652
vn 0.999984 0.00354156 0.00444166
vt 0.6348 1.6813
v 0.255578 0.0292829 0.16971
vn 0.999994 0 0.00346194
vt 0.6039 1.849
v -0.240656 0.0822197 -0.111888
vn -0.999948 0.00337521 -0.00961017
vt 0.4998 1.6813
v -0.239229 0.352348 -0.196181
vn -0.998173 -0.0131281 -0.058971
vt 0.4995 1.847
v -0.238867 0.35375 -0.202607
vn -0.998242 -0.012764 -0.0578825
vt 0.496 1.8489
v -0.240606 0.0802538 -0.118185
vn -0.999953 0.00358803 -0.00897329
vt 0.4958 1.6813
v 0.257706 0.350601 -0.191192
vn 0.999959 -0.00259246 0.00862009
vt 0.4156 1.6823
v 0.256279 0.0804705 -0.106902
vn 0.999959 -0.00259246 0.00862009
vt 0.416 1.8481
v 0.256328 0.0785071 -0.113197
vn 0.999959 -0.00259246 0.00862009
vt 0.4119 1.8481
v 0.256328 0.0785071 -0.113197
vn 0.998204 0.0117831 0.0587394
vt 0.4119 1.8481
v 0.258059 0.350632 -0.197192
vn 0.998204 0.0117831 0.0587394
vt 0.4121 1.6813
v 0.257706 0.350601 -0.191192
vn 0.998204 0.0117831 0.0587394
vt 0.4156 1.6823
v -0.239229 0.352348 -0.196181
vn 0.00380299 0.977304 0.211808
vt 0.541 1.9725
v 0.257706 0.350601 -0.191192
vn 0.00346153 0.99998 0.00530207
vt 0.5414 1.6814
v 0.258059 0.350632 -0.197192
vn 0.00346517 0.999969 0.00711136
vt 0.5451 1.6813
v -0.238867 0.35375 -0.202607
vn 0.00380505 0.976954 0.213416
vt 0.5451 1.9723
v -0.238867 0.35375 -0.202607
vn 0.00855755 -0.294979 -0.955465
vt 0.1957 1.3583
v 0.258059 0.350632 -0.197192
vn 0.00856143 -0.294973 -0.955467
vt 0.1955 1.6494
v 0.256328 0.0785071 -0.113197
vn 0.0085595 -0.294976 -0.955466
vt 0.0213 1.6498
v -0.240606 0.0802538 -0.118185
vn 0.00855562 -0.294983 -0.955464
vt 0.0206 1.3587
v -0.240606 0.0802538 -0.118185
vn -0.00634884 -0.954569 0.297923
vt 0.3666 1.9723
v 0.256328 0.0785071 -0.113197
vn -0.00634436 -0.95463 0.297727
vt 0.3669 1.6813
v 0.256279 0.0804705 -0.106902
vn -0.0063444 -0.954629 0.297729
vt 0.3707 1.6813
v -0.240656 0.0822197 -0.111888
vn -0.00634888 -0.954568 0.297925
vt 0.3704 1.9723
v -0.240656 0.0822197 -0.111888
vn -0.00853347 0.297908 0.954556
vt 0.8017 1.6415
v 0.256279 0.0804705 -0.106902
vn -0.00852786 0.297899 0.954559
vt 0.8015 1.3504
v 0.257706 0.350601 -0.191192
vn -0.00853062 0.297904 0.954558
vt 0.9748 1.3505
v -0.239229 0.352348 -0.196181
vn -0.00853622 0.297913 0.954555
vt 0.9751 1.6416
f -52/-52/-52 -54/-54/-54 -53/-53/-53
f -54/-54/-54 -52/-52/-52 -51/-51/-51
f -48/-48/-48 -50/-50/-50 -49/-49/-49
f -45/-45/-45 -47/-47/-47 -46/-46/-46
f -42/-42/-42 -44/-44/-44 -43/-43/-43
f -44/-44/-44 -42/-42/-42 -41/-41/-41
f -38/-38/-38 -40/-40/-40 -39/-39/-39
f -35/-35/-35 -37/-37/-37 -36/-36/-36
f -32/-32/-32 -34/-34/-34 -33/-33/-33
f -34/-34/-34 -32/-32/-32 -31/-31/-31
f -28/-28/-28 -30/-30/-30 -29/-29/-29
f -30/-30/-30 -28/-28/-28 -27/-27/-27
f -24/-24/-24 -26/-26/-26 -25/-25/-25
f -26/-26/-26 -24/-24/-24 -23/-23/-23
f -20/-20/-20 -22/-22/-22 -21/-21/-21
f -17/-17/-17 -19/-19/-19 -18/-18/-18
f -14/-14/-14 -16/-16/-16 -15/-15/-15
f -16/-16/-16 -14/-14/-14 -13/-13/-13
f -10/-10/-10 -12/-12/-12 -11/-11/-11
f -12/-12/-12 -10/-10/-10 -9/-9/-9
f -6/-6/-6 -8/-8/-8 -7/-7/-7
f -8/-8/-8 -6/-6/-6 -5/-5/-5
f -2/-2/-2 -4/-4/-4 -3/-3/-3
f -4/-4/-4 -2/-2/-2 -1/-1/-1

