mtllib E:\XNALara XPS\data\! Props\! Generics !\Computers\Laptop computer (NBA 2K11)\laptop_nba2k11.mtl
g Model001_Model001_5_Material45_1.0_0.0_0.0
usemtl Model001_Material001
v 0.2930595 0.487934 -0.1020844
vn 0.6870765 0.4361269 -0.5811361
vt -0.986816 1.784546
v 0.2891598 0.487437 -0.106159
vn 0.6870765 0.4361269 -0.5811361
vt -0.970703 1.784546
v 0.2893258 0.492609 -0.1025259
vn 0.6870765 0.4361269 -0.5811361
vt -0.970703 1.803345
v 0.2138224 0.061187 -0.04971263
vn 0.08011128 -0.005285691 -0.9967719
vt 1.84863 1.907898
v 0.2836921 0.0604757 -0.05122316
vn 0.08243604 -0.0007835871 -0.996596
vt 1.84863 1.988625
v 0.2831398 0.0252873 -0.05118356
vn 0.08184996 -0.00191472 -0.9966428
vt 1.79981 1.988625
v 0.1439585 0.061899 -0.04801472
vn 0.0797047 -0.006072947 -0.9968
vt 1.84863 1.836182
v 0.1439585 0.061899 -0.04801472
vn 0.07974229 -0.005929749 -0.9967979
vt 1.84863 1.836182
v 0.2831398 0.0252873 -0.05118356
vn 0.07974229 -0.005929749 -0.9967979
vt 1.79981 1.988625
v -0.135492 0.0647524 -0.04123304
vn 0.07974229 -0.005937539 -0.9967979
vt 1.84863 1.549072
v -0.2757622 0.0309927 -0.03761997
vn 0.07794281 -0.002263371 -0.9969553
vt 1.79981 1.406738
v -0.2053552 0.065466 -0.03953832
vn 0.07937037 -0.005194728 -0.9968317
vt 1.84863 1.477539
v -0.2752099 0.0661819 -0.03765957
vn 0.07717945 -0.0007018347 -0.997017
vt 1.84863 1.406738
v -0.2046756 0.0804133 -0.0198245
vn -0.0812229 -0.09754778 0.9919109
vt -1.90332 1.509521
v -0.2525723 0.099523 -0.01687569
vn -0.08648635 -0.110962 0.9900544
vt -1.95996 1.54248
v -0.2783433 0.0811603 -0.01856578
vn -0.08754171 -0.113641 0.9896576
vt -1.99023 1.509521
v -0.1348118 0.0797013 -0.02152241
vn -0.08040985 -0.09560443 0.9921663
vt -1.81055 1.509521
v 0.2630643 0.0942596 -0.02938861
vn -0.07439525 -0.111073 0.9910238
vt -1.34375 1.54248
v 0.1446381 0.0768463 -0.02830089
vn -0.08042239 -0.09538241 0.9921867
vt -1.48242 1.509521
v 0.2145013 0.0761343 -0.02999566
vn -0.07958876 -0.09756756 0.9920414
vt -1.40039 1.509521
v 0.2881441 0.0753756 -0.03231123
vn -0.07335234 -0.113776 0.9907948
vt -1.31348 1.509521
v 0.1444548 0.0621511 -0.02611774
vn 0.01108814 0.999882 -0.01062705
vt -1.46387 0.461914
v 0.2708727 0.0651703 0.3387539
vn 0.01106394 0.999882 -0.0106567
vt -1.31543 0.03613299
v 0.214318 0.0614375 -0.02781245
vn 0.01107671 0.9998825 -0.01060202
vt -1.37598 0.461914
v -0.2447674 0.0704344 0.3512699
vn 0.01111102 0.9998816 -0.010645
vt -1.96387 0.03613299
v -0.1349943 0.065003 -0.01933304
vn 0.01109269 0.9998823 -0.01060149
vt -1.81543 0.461914
v -0.2447674 0.0704344 0.3512699
vn 0.01108405 0.9998822 -0.01062096
vt -1.96387 0.03613299
v 0.1444548 0.0621511 -0.02611774
vn 0.01108405 0.9998822 -0.01062096
vt -1.46387 0.461914
v -0.2048579 0.0657181 -0.01764141
vn 0.01109242 0.999882 -0.01062255
vt -1.90332 0.461914
v -0.253092 0.0662107 -0.01642298
vn 0.01109537 0.9998821 -0.01061413
vt -1.96387 0.461914
v -0.2053552 0.065466 -0.03953832
vn 0.01108485 0.999882 -0.01063329
vt -1.90332 0.487305
v -0.2752099 0.0661819 -0.03765957
vn 0.01110172 0.9998821 -0.01060993
vt -1.99121 0.486328
v -0.2660333 0.0708414 0.3678995
vn 0.01112024 0.9998815 -0.01064283
vt -1.99121 0.01757801
v 0.2928672 0.065136 0.3543326
vn 0.01104888 0.9998822 -0.01065873
vt -1.28809 0.01757801
v 0.2625505 0.0609465 -0.02893669
vn 0.01107878 0.9998823 -0.01061303
vt -1.31543 0.461914
v 0.2836921 0.0604757 -0.05122316
vn 0.01108454 0.9998822 -0.01061531
vt -1.28809 0.486328
v 0.2138224 0.061187 -0.04971263
vn 0.01107221 0.9998828 -0.01058196
vt -1.37598 0.487305
v 0.1439585 0.061899 -0.04801472
vn 0.01108567 0.999882 -0.01063814
vt -1.46387 0.487305
v -0.135492 0.0647524 -0.04123304
vn 0.01108559 0.9998826 -0.01056905
vt -1.81543 0.487305
v 0.2891598 0.487437 -0.106159
vn 0.4630274 -0.120986 -0.8780478
vt -0.970703 1.97522
v 0.284175 0.0751616 -0.05396052
vn 0.07620484 -0.120239 -0.9898159
vt -0.970703 1.489746
v 0.144147 0.0765981 -0.05005741
vn 0.07603674 -0.125054 -0.989232
vt -0.806641 1.489746
v 0.1496312 0.502893 -0.1039071
vn 0.07608243 -0.1250401 -0.9892302
vt -0.806641 1.990013
v 0.004418571 0.0780244 -0.04666774
vn 0.07790674 -0.1250139 -0.9890915
vt -0.64209 1.489746
v 0.00995775 0.508273 -0.1011294
vn 0.07790499 -0.125218 -0.9890658
vt -0.64209 1.994461
v -0.1298182 0.505745 -0.09712511
vn 0.07970803 -0.125099 -0.9889372
vt -0.477539 1.990013
v -0.1353015 0.0794508 -0.04327597
vn 0.07978255 -0.125115 -0.9889292
vt -0.477539 1.489746
v -0.2697392 0.493143 -0.09259627
vn -0.3151065 -0.105588 -0.9431644
vt -0.312988 1.97522
v -0.2755838 0.0808771 -0.04037646
vn 0.08340676 -0.125359 -0.9885992
vt -0.312988 1.489746
v 0.2930595 0.487934 -0.1020844
vn 0.7894838 -0.09541865 -0.6063089
vt -0.986816 1.97522
v 0.2876529 0.0751258 -0.05406776
vn 0.07161406 -0.115069 -0.9907727
vt -0.986816 1.489746
v -0.2788364 0.0809106 -0.04032206
vn 0.07885757 -0.1252321 -0.9889886
vt -0.294678 1.489746
v -0.2734315 0.493718 -0.08833554
vn -0.6868933 -0.06549363 -0.7238012
vt -0.294678 1.97522
v -0.2695748 0.498314 -0.08895921
vn -0.5741028 0.4546359 -0.6809641
vt -0.312988 1.803345
v -0.2697392 0.493143 -0.09259627
vn -0.5741028 0.4546359 -0.6809641
vt -0.312988 1.784546
v -0.2734315 0.493718 -0.08833554
vn -0.5741028 0.4546359 -0.6809641
vt -0.294678 1.784546
v -0.2690424 0.501101 -0.06721117
vn -0.4520378 0.8794513 -0.1490879
vt -0.432129 1.548096
v -0.1296546 0.51092 -0.09349498
vn -0.008063516 0.8573905 -0.5146033
vt -0.546387 1.532227
v -0.2695748 0.498314 -0.08895921
vn -0.3164213 0.8452921 -0.4305332
vt -0.432129 1.532227
v -0.1291231 0.513702 -0.07173748
vn -0.04395352 0.9904664 -0.1305545
vt -0.546387 1.548096
v 0.01011928 0.513448 -0.09749585
vn 0.04979466 0.8576661 -0.5117903
vt -0.660645 1.532227
v 0.01065017 0.516232 -0.07574109
vn 0.02019631 0.9918637 -0.1256922
vt -0.660645 1.548096
v 0.1503271 0.51085 -0.07852234
vn 0.08431013 0.9891623 -0.1202068
vt -0.774902 1.548096
v 0.1497962 0.508067 -0.100274
vn 0.1073907 0.8562681 -0.5052447
vt -0.774902 1.532227
v 0.2898586 0.495396 -0.08077464
vn 0.4906252 0.8683601 -0.07237179
vt -0.88916 1.548096
v 0.2893258 0.492609 -0.1025259
vn 0.400994 0.8370936 -0.3721264
vt -0.88916 1.532227
v 0.2891598 0.487437 -0.106159
vn 0.1350411 0.5729633 -0.8083792
vt -0.88916 1.519531
v 0.1496312 0.502893 -0.1039071
vn 0.1136284 0.5738307 -0.8110529
vt -0.774902 1.519531
v 0.009957762 0.508273 -0.1011293
vn 0.07111534 0.574891 -0.8151337
vt -0.660645 1.519531
v -0.1298182 0.505745 -0.09712511
vn 0.02846534 0.5745861 -0.817949
vt -0.546387 1.519531
v -0.2697392 0.493143 -0.09259627
vn 0.00692702 0.5750889 -0.8180616
vt -0.432129 1.519531
v 0.2876529 0.0751258 -0.05406776
vn 0.9965362 -0.01569239 0.08166648
vt -0.97998 1.532227
v 0.2935883 0.490712 -0.08033248
vn 0.9466932 0.3202772 0.03456388
vt -0.900391 1.548096
v 0.288144 0.0753756 -0.03231124
vn 0.9965364 -0.0156925 0.08166353
vt -0.97998 1.548096
v 0.2930595 0.487934 -0.1020844
vn 0.9481077 0.315974 0.03538756
vt -0.900391 1.532227
v -0.2525723 0.099523 -0.01687569
vn -0.2480692 0.115502 0.961832
vt -2.35352 1.536865
v -0.2728997 0.496497 -0.06658392
vn -0.2480692 0.115502 0.961832
vt -2.94922 1.5
v -0.2783433 0.0811603 -0.01856578
vn -0.2480692 0.115502 0.961832
vt -2.32617 1.5
v -0.2475808 0.480605 -0.06117539
vn -0.2387586 0.116151 0.9641075
vt -2.9375 1.536865
v -0.2728997 0.496497 -0.06658392
vn -0.2387586 0.116151 0.9641075
vt -2.94922 1.5
v -0.2525723 0.099523 -0.01687569
vn -0.2387586 0.116151 0.9641075
vt -2.35352 1.536865
v 0.2935883 0.490712 -0.08033248
vn 0.08527318 0.1109511 0.9901608
vt -2.37109 1.5
v 0.2630643 0.0942596 -0.02938861
vn 0.09378963 0.110104 0.989485
vt -2.96484 1.536865
v 0.288144 0.0753756 -0.03231124
vn 0.09406665 0.110076 0.9894618
vt -2.99219 1.5
v 0.2680567 0.475341 -0.07368854
vn 0.0846705 0.11101 0.9902059
vt -2.38086 1.536865
v 0.2928672 0.065136 0.3543326
vn -0.07979521 0.0008166203 0.996811
vt 1.84863 1.406738
v -0.2665768 0.036228 0.3679371
vn -0.07979111 0.0007336321 0.9968113
vt 1.79981 1.988625
v 0.2923242 0.0305211 0.3543741
vn -0.0797952 0.0008201792 0.9968109
vt 1.79981 1.406738
v -0.2660333 0.0708414 0.3678995
vn -0.07979111 0.0007300741 0.9968113
vt 1.84863 1.988625
v 0.2831398 0.0252873 -0.05118356
vn 0.9965407 -0.0157003 0.08160959
vt 1.79981 1.406738
v 0.2928672 0.065136 0.3543326
vn 0.9965406 -0.015705 0.08160958
vt 1.84863 1.988625
v 0.2923242 0.0305211 0.3543741
vn 0.9965406 -0.0157053 0.08160958
vt 1.79981 1.988625
v 0.2836921 0.0604757 -0.05122316
vn 0.9965407 -0.0157001 0.08160959
vt 1.84863 1.406738
v 0.2140088 0.0758845 -0.05175508
vn 0.7333391 -0.111664 -0.6706303
vt 0.334717 0.9287109
v 0.1439585 0.061899 -0.04801472
vn -0.6796415 -0.08132122 -0.7290227
vt 0.398438 0.904297
v 0.144147 0.0765981 -0.05005741
vn -0.6155797 -0.0903945 -0.7828733
vt 0.398438 0.9287109
v 0.2138224 0.061187 -0.04971263
vn 0.7833456 -0.10508 -0.6126401
vt 0.334717 0.904297
v 0.1446381 0.0768463 -0.02830089
vn -0.9965388 0.01587579 -0.08159862
vt 0.380615 0.9287109
v 0.1444548 0.0621511 -0.02611775
vn -0.9965429 0.01582331 -0.08155901
vt 0.380615 0.904297
v 0.2145013 0.0761343 -0.02999566
vn -0.0774607 0.1465811 0.9861612
vt -0.050964 0.038086
v 0.1444548 0.0621511 -0.02611775
vn -0.07746293 0.1465921 0.9861593
vt 0.364502 0.02734399
v 0.214318 0.0614375 -0.02781247
vn -0.07746051 0.1465789 0.9861615
vt 0.427002 0.02734399
v 0.1446381 0.0768463 -0.02830089
vn -0.07746292 0.146594 0.9861591
vt -0.110046 0.038086
v 0.2145013 0.0761343 -0.02999566
vn 0.9965385 -0.0158146 0.08161397
vt 0.316406 0.9287109
v 0.214318 0.0614375 -0.02781247
vn 0.9965385 -0.0158142 0.08161397
vt 0.316406 0.904297
v -0.1353015 0.0794508 -0.04327597
vn 0.7334443 -0.1118191 -0.6704894
vt 0.313721 0.826172
v -0.2053552 0.065466 -0.03953832
vn -0.6795874 -0.08123701 -0.7290826
vt 0.377686 0.801758
v -0.2051654 0.0801635 -0.04157806
vn -0.6156213 -0.09023262 -0.7828591
vt 0.377686 0.826172
v -0.135492 0.0647524 -0.04123304
vn 0.7833263 -0.105201 -0.612644
vt 0.313721 0.801758
v -0.2046756 0.0804133 -0.0198245
vn -0.9965402 0.01582031 -0.08159263
vt 0.395752 0.826172
v -0.2048569 0.0657181 -0.01764153
vn -0.9965476 0.0157239 -0.08152005
vt 0.395752 0.801758
v -0.1348118 0.0797013 -0.02152241
vn -0.07748315 0.146918 0.9861093
vt 0.136475 0.03613299
v -0.2048579 0.0657181 -0.01764141
vn -0.07742901 0.146635 0.9861557
vt 0.061523 0.02734399
v -0.1349943 0.065003 -0.01933314
vn -0.07749332 0.1469701 0.9861007
vt 0.136475 0.02734399
v -0.2046756 0.0804133 -0.0198245
vn -0.07741905 0.1465831 0.9861642
vt 0.077209 0.03613299
v -0.1348118 0.0797013 -0.02152241
vn 0.9965369 -0.0158844 0.08162111
vt 0.331787 0.826172
v -0.1349943 0.065003 -0.01933314
vn 0.9965449 -0.0157803 0.08154263
vt 0.331787 0.801758
v -0.2690424 0.501101 -0.06721117
vn -0.1503869 0.2338939 0.9605609
vt -1.97168 1.970398
v -0.2728997 0.496497 -0.06658392
vn -0.1829805 0.2016139 0.9622213
vt -1.97754 1.964539
v -0.2475808 0.480605 -0.06117539
vn -0.09952261 0.273766 0.9566334
vt -1.94531 1.950928
v -0.1291231 0.513702 -0.07173748
vn -0.07799395 0.2266589 0.9708464
vt -1.79785 1.990479
v 0.01025985 0.479479 -0.0674331
vn -0.07559226 0.2205739 0.9724365
vt -1.63672 1.950928
v 0.01065017 0.516232 -0.07574109
vn -0.07558867 0.2201531 0.9725323
vt -1.63672 1.996386
v 0.1503271 0.51085 -0.07852234
vn -0.07284217 0.226671 0.9712437
vt -1.47461 1.990479
v 0.2680567 0.475341 -0.07368854
vn -0.04847089 0.273048 0.9607785
vt -1.33887 1.950928
v 0.2898586 0.495396 -0.08077464
vn 0.0005987171 0.2312749 0.9728882
vt -1.31152 1.970398
v 0.2935883 0.490712 -0.08033248
vn 0.03182919 0.1979799 0.9796891
vt -1.30469 1.965546
v -0.2752099 0.0661819 -0.03765967
vn -0.9965414 0.0156994 -0.0816014
vt 1.84863 1.988625
v -0.2685458 0.051766 0.2692464
vn -0.9965408 0.0121162 -0.08221614
vt 1.83984 1.529297
v -0.2660333 0.0708414 0.3678995
vn -0.9965394 0.01570169 -0.08162581
vt 1.84863 1.406738
v -0.2685467 0.0517621 0.2691901
vn -0.9947236 0.06012041 -0.08312944
vt 1.83984 1.554932
v -0.2757622 0.0309927 -0.03762006
vn -0.9965414 0.0156931 -0.0816014
vt 1.79981 1.988625
v -0.2685531 0.051717 0.2691788
vn -0.9935506 0.07912871 -0.0812151
vt 1.82031 1.554932
v -0.2665768 0.036228 0.3679371
vn -0.9965395 0.0156905 -0.08162582
vt 1.79981 1.406738
v -0.268546 0.0517177 0.2692373
vn -0.936271 0.3504691 -0.02383604
vt 1.82031 1.529297
v -0.2728997 0.496497 -0.06658392
vn -0.9299671 0.347871 -0.1189411
vt -0.419678 1.548096
v -0.2734315 0.493718 -0.08833554
vn -0.9315604 0.3437541 -0.1184414
vt -0.419678 1.532227
v -0.2525723 0.099523 -0.01687569
vn -0.07835931 0.1148321 0.9902896
vt -1.25098 0.700195
v 0.01025985 0.479479 -0.0674331
vn -0.07810441 0.114938 0.9902974
vt -1.13672 0.967773
v -0.2475808 0.480605 -0.06117539
vn -0.07877031 0.115117 0.9902239
vt -1.25098 0.967773
v 0.2630643 0.0942596 -0.02938861
vn -0.0778575 0.114824 0.9903301
vt -1.02246 0.700195
v 0.2680567 0.475341 -0.07368854
vn -0.07743517 0.115096 0.9903316
vt -1.02246 0.967773
v -0.2788364 0.0809106 -0.04032206
vn -0.9965423 0.0156979 -0.08159122
vt -0.303223 1.532227
v -0.2783433 0.0811604 -0.01856578
vn -0.9965423 0.0156979 -0.08159122
vt -0.303223 1.548096
f -144/-144/-144 -143/-143/-143 -142/-142/-142
f -141/-141/-141 -140/-140/-140 -139/-139/-139
f -138/-138/-138 -141/-141/-141 -139/-139/-139
f -137/-137/-137 -136/-136/-136 -135/-135/-135
f -135/-135/-135 -139/-139/-139 -134/-134/-134
f -135/-135/-135 -134/-134/-134 -133/-133/-133
f -133/-133/-133 -134/-134/-134 -132/-132/-132
f -131/-131/-131 -130/-130/-130 -129/-129/-129
f -128/-128/-128 -130/-130/-130 -131/-131/-131
f -128/-128/-128 -127/-127/-127 -130/-130/-130
f -126/-126/-126 -127/-127/-127 -128/-128/-128
f -126/-126/-126 -125/-125/-125 -127/-127/-127
f -124/-124/-124 -127/-127/-127 -125/-125/-125
f -123/-123/-123 -122/-122/-122 -121/-121/-121
f -123/-123/-123 -120/-120/-120 -122/-122/-122
f -119/-119/-119 -118/-118/-118 -117/-117/-117
f -119/-119/-119 -116/-116/-116 -120/-120/-120
f -116/-116/-116 -115/-115/-115 -120/-120/-120
f -116/-116/-116 -114/-114/-114 -115/-115/-115
f -114/-114/-114 -113/-113/-113 -115/-115/-115
f -115/-115/-115 -113/-113/-113 -112/-112/-112
f -120/-120/-120 -115/-115/-115 -112/-112/-112
f -120/-120/-120 -112/-112/-112 -122/-122/-122
f -122/-122/-122 -112/-112/-112 -111/-111/-111
f -122/-122/-122 -111/-111/-111 -110/-110/-110
f -110/-110/-110 -111/-111/-111 -109/-109/-109
f -110/-110/-110 -109/-109/-109 -108/-108/-108
f -121/-121/-121 -110/-110/-110 -108/-108/-108
f -121/-121/-121 -122/-122/-122 -110/-110/-110
f -107/-107/-107 -119/-119/-119 -123/-123/-123
f -106/-106/-106 -119/-119/-119 -107/-107/-107
f -105/-105/-105 -104/-104/-104 -103/-103/-103
f -105/-105/-105 -103/-103/-103 -102/-102/-102
f -102/-102/-102 -103/-103/-103 -101/-101/-101
f -100/-100/-100 -102/-102/-102 -101/-101/-101
f -100/-100/-100 -101/-101/-101 -99/-99/-99
f -99/-99/-99 -101/-101/-101 -98/-98/-98
f -99/-99/-99 -98/-98/-98 -97/-97/-97
f -97/-97/-97 -98/-98/-98 -96/-96/-96
f -104/-104/-104 -95/-95/-95 -94/-94/-94
f -105/-105/-105 -95/-95/-95 -104/-104/-104
f -93/-93/-93 -97/-97/-97 -96/-96/-96
f -92/-92/-92 -97/-97/-97 -93/-93/-93
f -91/-91/-91 -90/-90/-90 -89/-89/-89
f -88/-88/-88 -87/-87/-87 -86/-86/-86
f -85/-85/-85 -87/-87/-87 -88/-88/-88
f -85/-85/-85 -84/-84/-84 -87/-87/-87
f -83/-83/-83 -84/-84/-84 -85/-85/-85
f -82/-82/-82 -84/-84/-84 -83/-83/-83
f -82/-82/-82 -81/-81/-81 -84/-84/-84
f -80/-80/-80 -81/-81/-81 -82/-82/-82
f -80/-80/-80 -79/-79/-79 -81/-81/-81
f -79/-79/-79 -78/-78/-78 -77/-77/-77
f -79/-79/-79 -77/-77/-77 -81/-81/-81
f -81/-81/-81 -77/-77/-77 -76/-76/-76
f -84/-84/-84 -81/-81/-81 -76/-76/-76
f -84/-84/-84 -76/-76/-76 -87/-87/-87
f -87/-87/-87 -76/-76/-76 -75/-75/-75
f -87/-87/-87 -75/-75/-75 -86/-86/-86
f -86/-86/-86 -75/-75/-75 -74/-74/-74
f -73/-73/-73 -72/-72/-72 -71/-71/-71
f -70/-70/-70 -72/-72/-72 -73/-73/-73
f -69/-69/-69 -68/-68/-68 -67/-67/-67
f -66/-66/-66 -65/-65/-65 -64/-64/-64
f -63/-63/-63 -62/-62/-62 -61/-61/-61
f -60/-60/-60 -62/-62/-62 -63/-63/-63
f -59/-59/-59 -58/-58/-58 -57/-57/-57
f -56/-56/-56 -58/-58/-58 -59/-59/-59
f -55/-55/-55 -54/-54/-54 -53/-53/-53
f -52/-52/-52 -54/-54/-54 -55/-55/-55
f -51/-51/-51 -50/-50/-50 -49/-49/-49
f -48/-48/-48 -50/-50/-50 -51/-51/-51
f -50/-50/-50 -47/-47/-47 -49/-49/-49
f -46/-46/-46 -47/-47/-47 -50/-50/-50
f -45/-45/-45 -44/-44/-44 -43/-43/-43
f -42/-42/-42 -44/-44/-44 -45/-45/-45
f -41/-41/-41 -48/-48/-48 -51/-51/-51
f -40/-40/-40 -48/-48/-48 -41/-41/-41
f -39/-39/-39 -38/-38/-38 -37/-37/-37
f -36/-36/-36 -38/-38/-38 -39/-39/-39
f -38/-38/-38 -35/-35/-35 -37/-37/-37
f -34/-34/-34 -35/-35/-35 -38/-38/-38
f -33/-33/-33 -32/-32/-32 -31/-31/-31
f -30/-30/-30 -32/-32/-32 -33/-33/-33
f -29/-29/-29 -36/-36/-36 -39/-39/-39
f -28/-28/-28 -36/-36/-36 -29/-29/-29
f -27/-27/-27 -26/-26/-26 -25/-25/-25
f -27/-27/-27 -25/-25/-25 -24/-24/-24
f -24/-24/-24 -25/-25/-25 -23/-23/-23
f -22/-22/-22 -24/-24/-24 -23/-23/-23
f -22/-22/-22 -23/-23/-23 -21/-21/-21
f -21/-21/-21 -23/-23/-23 -20/-20/-20
f -21/-21/-21 -20/-20/-20 -19/-19/-19
f -19/-19/-19 -20/-20/-20 -18/-18/-18
f -17/-17/-17 -16/-16/-16 -15/-15/-15
f -17/-17/-17 -14/-14/-14 -16/-16/-16
f -13/-13/-13 -14/-14/-14 -17/-17/-17
f -13/-13/-13 -12/-12/-12 -14/-14/-14
f -11/-11/-11 -12/-12/-12 -13/-13/-13
f -11/-11/-11 -10/-10/-10 -12/-12/-12
f -10/-10/-10 -11/-11/-11 -16/-16/-16
f -16/-16/-16 -11/-11/-11 -15/-15/-15
f -86/-86/-86 -9/-9/-9 -88/-88/-88
f -8/-8/-8 -9/-9/-9 -86/-86/-86
f -79/-79/-79 -72/-72/-72 -70/-70/-70
f -80/-80/-80 -72/-72/-72 -79/-79/-79
f -7/-7/-7 -6/-6/-6 -5/-5/-5
f -4/-4/-4 -6/-6/-6 -7/-7/-7
f -4/-4/-4 -3/-3/-3 -6/-6/-6
f -9/-9/-9 -2/-2/-2 -1/-1/-1
f -8/-8/-8 -2/-2/-2 -9/-9/-9

