mtllib D:\XNALara XPS\data\! Props\! Computers and computing aids\Acer laptop (GMOD)\acer.mtl
g Model001_4_Material939_1.0_0.0_0.0
usemtl Model001_Material001
v -0.0393233 0.017071 -0.007766752
vn 0.7131289 0 0.7010331
vt 0.3195 1.2828
v 0.0393233 0.019167 -0.007766748
vn -4.371139E-08 0 1
vt 0.3176 1.3534
v -0.0393233 0.019167 -0.007766752
vn -4.371139E-08 0 1
vt 0.3176 1.2828
v -0.0393233 0.017071 -0.007766752
vn -7.412839E-10 0.999856 0.0169586
vt 0.3195 1.2828
v 0.0393233 0.017071 -0.007766748
vn -0.57735 0.57735 0.57735
vt 0.3195 1.3534
v -0.170603 0.00147125 0.07565829
vn -1 0 -4.371139E-08
vt 0.6317 1.0164
v -0.170603 0 -0.17952
vn -1 0 -4.371139E-08
vt 0.8923 1.0149
v -0.170603 0 0.07218289
vn -1 0 -4.371139E-08
vt 0.6353 1.0149
v -0.170603 0.248472 -0.272813
vn -1 0 -4.371139E-08
vt 0.9875 1.2686
v -0.170603 0.0277905 -0.159101
vn -1 0 -4.371139E-08
vt 0.8714 1.0433
v -0.170603 0.255936 -0.255155
vn -1 0 -4.371139E-08
vt 0.9695 1.2762
v -0.170603 0.0277905 -0.17952
vn -1 0 -4.371139E-08
vt 0.8923 1.0433
v -0.170603 0.019167 -0.159101
vn -1 0 -4.371139E-08
vt 0.8714 1.0345
v -0.170603 0.019167 0.07218289
vn -1 0 -4.371139E-08
vt 0.6353 1.0345
v -0.170603 0.0176958 0.07565829
vn -1 0 -4.371139E-08
vt 0.6317 1.033
v -0.170603 0.00958477 0.07913619
vn -1 0 -4.371139E-08
vt 0.6282 1.0247
v 0.170603 0.0277905 -0.159101
vn -0.0004067058 0.198292 0.980143
vt 0.4858 1.6465
v -0.170603 0.019167 -0.159101
vn -4.371139E-08 0 1
vt 0.0148 1.6346
v 0.170603 0.019167 -0.159101
vn -4.371139E-08 0 1
vt 0.4858 1.6346
v -0.170603 0.0277905 -0.159101
vn 0.0004059372 0.198291 0.980143
vt 0.0148 1.6465
v 0.155554 0.245864 -0.250938
vn -0.0006246296 0.078992 0.996875
vt 0.4651 1.9732
v 0.155554 0.037847 -0.163357
vn -0.2979 0.630275 0.716944
vt 0.4651 1.6616
v 0.170603 0.255936 -0.255155
vn -0.0008482683 0.387316 0.921947
vt 0.4858 1.9883
v -0.155554 0.243804 -0.255831
vn 0.707116 -0.651687 0.274394
vt 0.0437 1.9676
v 0.155554 0.245864 -0.250938
vn -1.696251E-08 -0.921635 0.388057
vt 0.4651 1.9732
v -0.155554 0.245864 -0.250938
vn 0.301964 0.072208 0.950581
vt 0.0355 1.9732
v 0.155554 0.243804 -0.255831
vn -0.01498082 -0.921532 0.388013
vt 0.4572 1.9673
v -0.170603 0.255936 -0.255155
vn 0.0008467927 0.387319 0.921945
vt 0.0148 1.9883
v -0.155554 0.037847 -0.163357
vn 0.302012 0.62942 0.715974
vt 0.0355 1.6616
v 0.155554 0.0357842 -0.168252
vn -0.707042 0.651684 -0.27459
vt 0.4574 1.6676
v -0.155554 0.0357842 -0.168252
vn 0.01497122 0.921432 -0.38825
vt 0.0437 1.6677
v -0.170603 0.0277905 -0.17952
vn 4.284022E-08 -0.198651 -0.98007
vt 0.9791 1.6164
v 0.170603 0 -0.17952
vn 4.371139E-08 0 -1
vt 0.5123 1.5784
v -0.170603 0 -0.17952
vn 4.371139E-08 0 -1
vt 0.9791 1.5784
v 0.170603 0.0277905 -0.17952
vn 4.284022E-08 -0.198651 -0.98007
vt 0.5123 1.6164
v -0.170603 0 -0.17952
vn 0 -1 0
vt 0.7983 1.0805
v 0.170603 0 0.07218291
vn -8.693889E-09 -0.980021 0.198893
vt 0.451 1.5522
v -0.170603 0 0.07218289
vn -8.693889E-09 -0.980021 0.198893
vt 0.451 1.0805
v -0.170603 0.00147125 0.07565829
vn -3.083878E-08 -0.7087 0.705509
vt 0.4458 1.0805
v -0.170603 0.248472 -0.272813
vn 4.079615E-08 0.359078 -0.933307
vt 0.9791 1.9442
v 0.170603 0.248472 -0.272813
vn 4.026151E-08 -0.389383 -0.921076
vt 0.5123 1.9442
v 0.155554 0.243804 -0.255831
vn -1 0 -4.371139E-08
vt 0.4572 1.9673
v 0.155554 0.037847 -0.163357
vn -1 0 -4.371139E-08
vt 0.4651 1.6616
v 0.155554 0.245864 -0.250938
vn -1 0 -4.371139E-08
vt 0.4651 1.9732
v -0.155554 0.0357842 -0.168252
vn 1 0 4.371139E-08
vt 0.0437 1.6677
v -0.170603 0.248472 -0.272813
vn 1.701785E-08 0.921101 -0.389323
vt 0.9791 1.9442
v 0.170603 0.255936 -0.255155
vn 1.701785E-08 0.921101 -0.389323
vt 0.5123 1.9705
v 0.170603 0.248472 -0.272813
vn 1.701785E-08 0.921101 -0.389323
vt 0.5123 1.9442
v -0.170603 0.255936 -0.255155
vn 1.701785E-08 0.921101 -0.389323
vt 0.9791 1.9705
v -0.0393233 0.017071 0.0452313
vn 0.57735 0.57735 -0.57735
vt 0.3671 1.2828
v -0.0393233 0.017071 -0.007766752
vn -7.412839E-10 0.999856 0.0169586
vt 0.3195 1.2828
v 0.0393233 0.017071 0.0452313
vn -0.57735 0.57735 -0.57735
vt 0.3671 1.3534
v -0.0393233 0.019167 -0.007766752
vn 1 0 4.371139E-08
vt 0.3195 1.2809
v -0.0393233 0.019167 0.0452313
vn 1 0 4.371139E-08
vt 0.3671 1.2809
v -0.0393233 0.019167 0.0452313
vn 4.371139E-08 0 -1
vt 0.369 1.2828
v 0.0393233 0.019167 0.0452313
vn 4.371139E-08 0 -1
vt 0.369 1.3534
v 0.0393233 0.019167 0.0452313
vn -1 0 -4.371139E-08
vt 0.3671 1.3553
v 0.0393233 0.019167 -0.007766748
vn -1 0 -4.371139E-08
vt 0.3195 1.3553
v 0.170603 0.248472 -0.272813
vn 1 0 4.371139E-08
vt 0.9875 1.2682
v 0.170603 0.255936 -0.255155
vn 1 0 4.371139E-08
vt 0.9695 1.2759
v 0.170603 0.0277905 -0.17952
vn 1 0 4.371139E-08
vt 0.8922 1.0427
v 0.170603 0.0277905 -0.159101
vn 1 0 4.371139E-08
vt 0.8713 1.0427
v 0.170603 0.019167 -0.159101
vn 1 0 4.371139E-08
vt 0.8713 1.0339
v 0.170603 0 -0.17952
vn 1 0 4.371139E-08
vt 0.8922 1.0143
v 0.170603 0.0176958 0.07565831
vn 1 0 4.371139E-08
vt 0.6314 1.0324
v 0.170603 0 0.07218291
vn 1 0 4.371139E-08
vt 0.6349 1.0143
v 0.170603 0.00147125 0.07565831
vn 1 0 4.371139E-08
vt 0.6314 1.0158
v 0.170603 0.00958477 0.07913621
vn 1 0 4.371139E-08
vt 0.6278 1.0241
v 0.170603 0.019167 0.07218291
vn 1 0 4.371139E-08
vt 0.6349 1.0339
v 0.0393233 0.019167 0.0452313
vn 0 1 0
vt 0.3789 1.3708
v -0.0393233 0.019167 0.0452313
vn 0 1 0
vt 0.3789 1.262
v -0.170603 0.019167 0.07218289
vn -8.693889E-09 0.980021 0.198893
vt 0.4161 1.0805
v -0.0393233 0.019167 -0.007766752
vn 0 1 0
vt 0.3056 1.262
v -0.170603 0.019167 -0.159101
vn 0 1 0
vt 0.0964 1.0805
v 0.0393233 0.019167 -0.007766748
vn 0 1 0
vt 0.3056 1.3708
v 0.170603 0.019167 -0.159101
vn 0 1 0
vt 0.0964 1.5522
v 0.170603 0.019167 0.07218291
vn -1.192591E-10 0.999996 0.00272833
vt 0.4161 1.5522
v -0.170603 0.0176958 0.07565829
vn -3.088109E-08 0.707736 0.706477
vt 0.4214 1.0805
v 0.170603 0.019167 0.07218291
vn -1.704036E-08 0.920883 0.389838
vt 0.4161 1.5522
v -0.170603 0.0176958 0.07565829
vn -1.704036E-08 0.920883 0.389838
vt 0.4214 1.0805
v 0.170603 0.0176958 0.07565831
vn -3.083703E-08 0.708741 0.705469
vt 0.4214 1.5522
v -0.170603 0.00958477 0.07913619
vn -4.371139E-08 5.65823E-05 1
vt 0.4336 1.0805
v 0.170603 0.00958477 0.07913621
vn -4.371139E-08 5.68919E-05 1
vt 0.4336 1.5522
v 0.170603 0.00147125 0.07565831
vn -3.083882E-08 -0.7087 0.70551
vt 0.4458 1.5522
v 0.170603 0 -0.17952
vn 0 -1 0
vt 0.7983 1.5522
f -83/-83/-83 -85/-85/-85 -84/-84/-84
f -81/-81/-81 -84/-84/-84 -82/-82/-82
f -78/-78/-78 -80/-80/-80 -79/-79/-79
f -75/-75/-75 -77/-77/-77 -76/-76/-76
f -77/-77/-77 -74/-74/-74 -76/-76/-76
f -74/-74/-74 -79/-79/-79 -76/-76/-76
f -79/-79/-79 -73/-73/-73 -76/-76/-76
f -72/-72/-72 -73/-73/-73 -79/-79/-79
f -80/-80/-80 -72/-72/-72 -79/-79/-79
f -71/-71/-71 -72/-72/-72 -80/-80/-80
f -70/-70/-70 -71/-71/-71 -80/-80/-80
f -67/-67/-67 -69/-69/-69 -68/-68/-68
f -66/-66/-66 -68/-68/-68 -69/-69/-69
f -64/-64/-64 -69/-69/-69 -65/-65/-65
f -63/-63/-63 -65/-65/-65 -69/-69/-69
f -60/-60/-60 -62/-62/-62 -61/-61/-61
f -59/-59/-59 -65/-65/-65 -62/-62/-62
f -60/-60/-60 -58/-58/-58 -57/-57/-57
f -66/-66/-66 -57/-57/-57 -58/-58/-58
f -64/-64/-64 -56/-56/-56 -57/-57/-57
f -55/-55/-55 -57/-57/-57 -56/-56/-56
f -52/-52/-52 -54/-54/-54 -53/-53/-53
f -51/-51/-51 -53/-53/-53 -54/-54/-54
f -48/-48/-48 -50/-50/-50 -49/-49/-49
f -48/-48/-48 -49/-49/-49 -47/-47/-47
f -45/-45/-45 -51/-51/-51 -46/-46/-46
f -54/-54/-54 -46/-46/-46 -51/-51/-51
f -69/-69/-69 -64/-64/-64 -66/-66/-66
f -57/-57/-57 -66/-66/-66 -64/-64/-64
f -58/-58/-58 -60/-60/-60 -63/-63/-63
f -65/-65/-65 -63/-63/-63 -60/-60/-60
f -42/-42/-42 -44/-44/-44 -43/-43/-43
f -56/-56/-56 -64/-64/-64 -59/-59/-59
f -57/-57/-57 -41/-41/-41 -60/-60/-60
f -62/-62/-62 -60/-60/-60 -55/-55/-55
f -38/-38/-38 -40/-40/-40 -39/-39/-39
f -37/-37/-37 -39/-39/-39 -46/-46/-46
f -35/-35/-35 -36/-36/-36 -81/-81/-81
f -34/-34/-34 -81/-81/-81 -36/-36/-36
f -32/-32/-32 -36/-36/-36 -33/-33/-33
f -85/-85/-85 -33/-33/-33 -36/-36/-36
f -30/-30/-30 -34/-34/-34 -31/-31/-31
f -36/-36/-36 -31/-31/-31 -34/-34/-34
f -28/-28/-28 -81/-81/-81 -29/-29/-29
f -34/-34/-34 -29/-29/-29 -81/-81/-81
f -25/-25/-25 -27/-27/-27 -26/-26/-26
f -24/-24/-24 -25/-25/-25 -26/-26/-26
f -23/-23/-23 -25/-25/-25 -24/-24/-24
f -22/-22/-22 -25/-25/-25 -23/-23/-23
f -21/-21/-21 -22/-22/-22 -23/-23/-23
f -20/-20/-20 -22/-22/-22 -21/-21/-21
f -19/-19/-19 -20/-20/-20 -21/-21/-21
f -18/-18/-18 -19/-19/-19 -21/-21/-21
f -17/-17/-17 -21/-21/-21 -23/-23/-23
f -14/-14/-14 -16/-16/-16 -15/-15/-15
f -15/-15/-15 -13/-13/-13 -14/-14/-14
f -14/-14/-14 -13/-13/-13 -12/-12/-12
f -13/-13/-13 -11/-11/-11 -12/-12/-12
f -12/-12/-12 -11/-11/-11 -10/-10/-10
f -11/-11/-11 -16/-16/-16 -10/-10/-10
f -10/-10/-10 -16/-16/-16 -9/-9/-9
f -9/-9/-9 -16/-16/-16 -14/-14/-14
f -14/-14/-14 -8/-8/-8 -9/-9/-9
f -5/-5/-5 -7/-7/-7 -6/-6/-6
f -8/-8/-8 -4/-4/-4 -5/-5/-5
f -3/-3/-3 -5/-5/-5 -4/-4/-4
f -4/-4/-4 -47/-47/-47 -3/-3/-3
f -2/-2/-2 -3/-3/-3 -47/-47/-47
f -2/-2/-2 -47/-47/-47 -49/-49/-49
f -1/-1/-1 -49/-49/-49 -50/-50/-50

mtllib D:\XNALara XPS\data\! Props\! Computers and computing aids\Acer laptop (GMOD)\acer.mtl
g Model001_5_Material940_1.0_0.0_0.0
usemtl Model001_Material002
v 0.155554 0.243804 -0.255831
vn -4.028656E-08 0.388025 0.921649
vt 0.999501 1.999501
v -0.155554 0.0357842 -0.168252
vn -4.028656E-08 0.388025 0.921649
vt 0.000499517 1.000499
v 0.155554 0.0357842 -0.168252
vn -4.028656E-08 0.388025 0.921649
vt 0.9995 1.000499
v -0.155554 0.0357842 -0.168252
vn -4.028656E-08 0.388025 0.921649
vt 0.000499517 1.000499
v 0.155554 0.243804 -0.255831
vn -4.028656E-08 0.388025 0.921649
vt 0.999501 1.999501
v -0.155554 0.243804 -0.255831
vn -4.028656E-08 0.388025 0.921649
vt 0.000499606 1.999501
f -4/-4/-4 -6/-6/-6 -5/-5/-5
f -1/-1/-1 -3/-3/-3 -2/-2/-2

